<mxfile host="app.diagrams.net" modified="2020-11-05T01:34:23.745Z" agent="5.0 (Windows)" etag="WJu3f4ymbjYRRRwaZ4ox" version="13.8.8" type="github">
  <diagram id="AANyPT6bGhwmdgy3tdTZ" name="Page-1">
    <mxGraphModel dx="1422" dy="763" grid="1" gridSize="10" guides="1" tooltips="1" connect="1" arrows="1" fold="1" page="1" pageScale="1" pageWidth="1920" pageHeight="1200" math="0" shadow="0">
      <root>
        <mxCell id="0" />
        <mxCell id="1" parent="0" />
        <mxCell id="aP7lQ5Zf4fHE2E8MXHQa-24" style="edgeStyle=orthogonalEdgeStyle;rounded=0;orthogonalLoop=1;jettySize=auto;html=1;" edge="1" parent="1" source="0ONp2DLV14u4Jb8AU9xu-2" target="aP7lQ5Zf4fHE2E8MXHQa-16">
          <mxGeometry relative="1" as="geometry" />
        </mxCell>
        <mxCell id="aP7lQ5Zf4fHE2E8MXHQa-30" style="edgeStyle=orthogonalEdgeStyle;rounded=0;orthogonalLoop=1;jettySize=auto;html=1;entryX=-0.007;entryY=0.45;entryDx=0;entryDy=0;entryPerimeter=0;" edge="1" parent="1" source="0ONp2DLV14u4Jb8AU9xu-2" target="aP7lQ5Zf4fHE2E8MXHQa-21">
          <mxGeometry relative="1" as="geometry">
            <Array as="points">
              <mxPoint x="760" y="160" />
              <mxPoint x="760" y="508" />
            </Array>
          </mxGeometry>
        </mxCell>
        <mxCell id="0ONp2DLV14u4Jb8AU9xu-2" value="&lt;div&gt;Vending&lt;/div&gt;&lt;div&gt;Machine&lt;/div&gt;&lt;div&gt;Workspace&lt;/div&gt;" style="whiteSpace=wrap;html=1;aspect=fixed;" parent="1" vertex="1">
          <mxGeometry x="340" y="120" width="80" height="80" as="geometry" />
        </mxCell>
        <mxCell id="aP7lQ5Zf4fHE2E8MXHQa-28" style="edgeStyle=orthogonalEdgeStyle;rounded=0;orthogonalLoop=1;jettySize=auto;html=1;" edge="1" parent="1" source="0ONp2DLV14u4Jb8AU9xu-3" target="aP7lQ5Zf4fHE2E8MXHQa-27">
          <mxGeometry relative="1" as="geometry" />
        </mxCell>
        <mxCell id="0ONp2DLV14u4Jb8AU9xu-3" value="Subscription Workspace" style="whiteSpace=wrap;html=1;aspect=fixed;" parent="1" vertex="1">
          <mxGeometry x="900" y="120" width="80" height="80" as="geometry" />
        </mxCell>
        <mxCell id="0ONp2DLV14u4Jb8AU9xu-7" style="edgeStyle=orthogonalEdgeStyle;rounded=0;orthogonalLoop=1;jettySize=auto;html=1;exitX=1;exitY=0.5;exitDx=0;exitDy=0;entryX=0;entryY=0.5;entryDx=0;entryDy=0;" parent="1" source="0ONp2DLV14u4Jb8AU9xu-4" target="0ONp2DLV14u4Jb8AU9xu-2" edge="1">
          <mxGeometry relative="1" as="geometry" />
        </mxCell>
        <mxCell id="0ONp2DLV14u4Jb8AU9xu-4" value="&#xa;&lt;div&gt;subscriptions.auto.tfvars&lt;/div&gt;&#xa;&#xa;" style="rounded=0;whiteSpace=wrap;html=1;" parent="1" vertex="1">
          <mxGeometry x="120" y="120" width="170" height="80" as="geometry" />
        </mxCell>
        <mxCell id="aP7lQ5Zf4fHE2E8MXHQa-18" value="" style="group" vertex="1" connectable="0" parent="1">
          <mxGeometry x="40" y="400" width="680" height="480" as="geometry" />
        </mxCell>
        <mxCell id="aP7lQ5Zf4fHE2E8MXHQa-16" value="" style="rounded=0;whiteSpace=wrap;html=1;fillColor=#f8cecc;strokeColor=#b85450;" vertex="1" parent="aP7lQ5Zf4fHE2E8MXHQa-18">
          <mxGeometry width="680" height="480" as="geometry" />
        </mxCell>
        <mxCell id="aP7lQ5Zf4fHE2E8MXHQa-14" value="" style="rounded=0;whiteSpace=wrap;html=1;fillColor=#dae8fc;strokeColor=#6c8ebf;" vertex="1" parent="aP7lQ5Zf4fHE2E8MXHQa-18">
          <mxGeometry x="40" y="40" width="160" height="280" as="geometry" />
        </mxCell>
        <mxCell id="aP7lQ5Zf4fHE2E8MXHQa-12" value="" style="rounded=0;whiteSpace=wrap;html=1;fillColor=#dae8fc;strokeColor=#6c8ebf;" vertex="1" parent="aP7lQ5Zf4fHE2E8MXHQa-18">
          <mxGeometry x="240" y="40" width="400" height="400" as="geometry" />
        </mxCell>
        <mxCell id="0ONp2DLV14u4Jb8AU9xu-1" value="&lt;div&gt;Cloudshell&lt;/div&gt;" style="whiteSpace=wrap;html=1;aspect=fixed;" parent="aP7lQ5Zf4fHE2E8MXHQa-18" vertex="1">
          <mxGeometry x="280" y="80" width="80" height="80" as="geometry" />
        </mxCell>
        <mxCell id="aP7lQ5Zf4fHE2E8MXHQa-2" value="&lt;div&gt;Non-prod Transit&lt;/div&gt;" style="whiteSpace=wrap;html=1;aspect=fixed;" vertex="1" parent="aP7lQ5Zf4fHE2E8MXHQa-18">
          <mxGeometry x="280" y="200" width="80" height="80" as="geometry" />
        </mxCell>
        <mxCell id="aP7lQ5Zf4fHE2E8MXHQa-3" value="Prod Netwatcher" style="whiteSpace=wrap;html=1;aspect=fixed;" vertex="1" parent="aP7lQ5Zf4fHE2E8MXHQa-18">
          <mxGeometry x="400" y="80" width="80" height="80" as="geometry" />
        </mxCell>
        <mxCell id="aP7lQ5Zf4fHE2E8MXHQa-4" value="Prod Security" style="whiteSpace=wrap;html=1;aspect=fixed;" vertex="1" parent="aP7lQ5Zf4fHE2E8MXHQa-18">
          <mxGeometry x="400" y="200" width="80" height="80" as="geometry" />
        </mxCell>
        <mxCell id="aP7lQ5Zf4fHE2E8MXHQa-5" value="&lt;div&gt;Shared Services&lt;br&gt;&lt;/div&gt;" style="whiteSpace=wrap;html=1;aspect=fixed;" vertex="1" parent="aP7lQ5Zf4fHE2E8MXHQa-18">
          <mxGeometry x="280" y="320" width="80" height="80" as="geometry" />
        </mxCell>
        <mxCell id="aP7lQ5Zf4fHE2E8MXHQa-6" value="&lt;div&gt;Prod Shared&lt;br&gt;&lt;/div&gt;" style="whiteSpace=wrap;html=1;aspect=fixed;" vertex="1" parent="aP7lQ5Zf4fHE2E8MXHQa-18">
          <mxGeometry x="400" y="320" width="80" height="80" as="geometry" />
        </mxCell>
        <mxCell id="aP7lQ5Zf4fHE2E8MXHQa-7" value="&lt;div&gt;Prod Transit&lt;br&gt;&lt;/div&gt;" style="whiteSpace=wrap;html=1;aspect=fixed;" vertex="1" parent="aP7lQ5Zf4fHE2E8MXHQa-18">
          <mxGeometry x="520" y="80" width="80" height="80" as="geometry" />
        </mxCell>
        <mxCell id="aP7lQ5Zf4fHE2E8MXHQa-8" value="&lt;div&gt;Prod Logs&lt;/div&gt;" style="whiteSpace=wrap;html=1;aspect=fixed;" vertex="1" parent="aP7lQ5Zf4fHE2E8MXHQa-18">
          <mxGeometry x="520" y="320" width="80" height="80" as="geometry" />
        </mxCell>
        <mxCell id="aP7lQ5Zf4fHE2E8MXHQa-9" value="&lt;div&gt;Prod Automation&lt;br&gt;&lt;/div&gt;" style="whiteSpace=wrap;html=1;aspect=fixed;" vertex="1" parent="aP7lQ5Zf4fHE2E8MXHQa-18">
          <mxGeometry x="520" y="200" width="80" height="80" as="geometry" />
        </mxCell>
        <mxCell id="aP7lQ5Zf4fHE2E8MXHQa-10" value="Prod Security" style="whiteSpace=wrap;html=1;aspect=fixed;" vertex="1" parent="aP7lQ5Zf4fHE2E8MXHQa-18">
          <mxGeometry x="80" y="200" width="80" height="80" as="geometry" />
        </mxCell>
        <mxCell id="aP7lQ5Zf4fHE2E8MXHQa-11" value="Prod Netwatcher" style="whiteSpace=wrap;html=1;aspect=fixed;" vertex="1" parent="aP7lQ5Zf4fHE2E8MXHQa-18">
          <mxGeometry x="80" y="80" width="80" height="80" as="geometry" />
        </mxCell>
        <mxCell id="aP7lQ5Zf4fHE2E8MXHQa-13" value="&lt;div&gt;Management Prod Subscription&lt;/div&gt;" style="text;html=1;strokeColor=none;fillColor=none;align=center;verticalAlign=middle;whiteSpace=wrap;rounded=0;fontStyle=1" vertex="1" parent="aP7lQ5Zf4fHE2E8MXHQa-18">
          <mxGeometry x="345" y="50" width="190" height="20" as="geometry" />
        </mxCell>
        <mxCell id="aP7lQ5Zf4fHE2E8MXHQa-15" value="Security Subscription" style="text;html=1;strokeColor=none;fillColor=none;align=center;verticalAlign=middle;whiteSpace=wrap;rounded=0;fontStyle=1" vertex="1" parent="aP7lQ5Zf4fHE2E8MXHQa-18">
          <mxGeometry x="50" y="50" width="140" height="20" as="geometry" />
        </mxCell>
        <mxCell id="aP7lQ5Zf4fHE2E8MXHQa-17" value="Management" style="text;html=1;strokeColor=none;fillColor=none;align=center;verticalAlign=middle;whiteSpace=wrap;rounded=0;fontStyle=1" vertex="1" parent="aP7lQ5Zf4fHE2E8MXHQa-18">
          <mxGeometry x="40" y="10" width="70" height="20" as="geometry" />
        </mxCell>
        <mxCell id="aP7lQ5Zf4fHE2E8MXHQa-22" value="" style="endArrow=classic;html=1;exitX=1;exitY=0.5;exitDx=0;exitDy=0;entryX=0;entryY=0.5;entryDx=0;entryDy=0;" edge="1" parent="1" source="0ONp2DLV14u4Jb8AU9xu-2" target="0ONp2DLV14u4Jb8AU9xu-3">
          <mxGeometry width="50" height="50" relative="1" as="geometry">
            <mxPoint x="400" y="510" as="sourcePoint" />
            <mxPoint x="450" y="460" as="targetPoint" />
          </mxGeometry>
        </mxCell>
        <mxCell id="aP7lQ5Zf4fHE2E8MXHQa-27" value="App Team Workspace" style="whiteSpace=wrap;html=1;aspect=fixed;" vertex="1" parent="1">
          <mxGeometry x="1100" y="120" width="80" height="80" as="geometry" />
        </mxCell>
        <mxCell id="aP7lQ5Zf4fHE2E8MXHQa-31" value="" style="group" vertex="1" connectable="0" parent="1">
          <mxGeometry x="820" y="400" width="440" height="240" as="geometry" />
        </mxCell>
        <mxCell id="aP7lQ5Zf4fHE2E8MXHQa-21" value="" style="rounded=0;whiteSpace=wrap;html=1;fillColor=#f8cecc;strokeColor=#b85450;" vertex="1" parent="aP7lQ5Zf4fHE2E8MXHQa-31">
          <mxGeometry width="440" height="240" as="geometry" />
        </mxCell>
        <mxCell id="aP7lQ5Zf4fHE2E8MXHQa-20" value="" style="rounded=0;whiteSpace=wrap;html=1;fillColor=#dae8fc;strokeColor=#6c8ebf;" vertex="1" parent="aP7lQ5Zf4fHE2E8MXHQa-31">
          <mxGeometry x="40" y="40" width="360" height="160" as="geometry" />
        </mxCell>
        <mxCell id="0ONp2DLV14u4Jb8AU9xu-5" value="Baseline" style="whiteSpace=wrap;html=1;aspect=fixed;" parent="aP7lQ5Zf4fHE2E8MXHQa-31" vertex="1">
          <mxGeometry x="80" y="80" width="80" height="80" as="geometry" />
        </mxCell>
        <mxCell id="aP7lQ5Zf4fHE2E8MXHQa-19" value="&lt;div&gt;Product&lt;/div&gt;" style="whiteSpace=wrap;html=1;aspect=fixed;" vertex="1" parent="aP7lQ5Zf4fHE2E8MXHQa-31">
          <mxGeometry x="280" y="80" width="80" height="80" as="geometry" />
        </mxCell>
        <mxCell id="aP7lQ5Zf4fHE2E8MXHQa-32" value="Development" style="text;html=1;strokeColor=none;fillColor=none;align=center;verticalAlign=middle;whiteSpace=wrap;rounded=0;fontStyle=1" vertex="1" parent="aP7lQ5Zf4fHE2E8MXHQa-31">
          <mxGeometry x="40" y="10" width="70" height="20" as="geometry" />
        </mxCell>
        <mxCell id="aP7lQ5Zf4fHE2E8MXHQa-34" value="App Team Subscription" style="text;html=1;strokeColor=none;fillColor=none;align=center;verticalAlign=middle;whiteSpace=wrap;rounded=0;fontStyle=1" vertex="1" parent="aP7lQ5Zf4fHE2E8MXHQa-31">
          <mxGeometry x="150" y="50" width="140" height="20" as="geometry" />
        </mxCell>
        <mxCell id="aP7lQ5Zf4fHE2E8MXHQa-23" style="edgeStyle=orthogonalEdgeStyle;rounded=0;orthogonalLoop=1;jettySize=auto;html=1;" edge="1" parent="1" source="0ONp2DLV14u4Jb8AU9xu-3" target="0ONp2DLV14u4Jb8AU9xu-5">
          <mxGeometry relative="1" as="geometry" />
        </mxCell>
        <mxCell id="aP7lQ5Zf4fHE2E8MXHQa-29" style="edgeStyle=orthogonalEdgeStyle;rounded=0;orthogonalLoop=1;jettySize=auto;html=1;" edge="1" parent="1" source="aP7lQ5Zf4fHE2E8MXHQa-27" target="aP7lQ5Zf4fHE2E8MXHQa-19">
          <mxGeometry relative="1" as="geometry" />
        </mxCell>
      </root>
    </mxGraphModel>
  </diagram>
</mxfile>
